Coordinates
version=1
nRows=10
nColumns=63
inDegrees=yes

Units are S.I. units (second, meters, Newtons, ...)
If the header above contains a line with 'inDegrees', this indicates whether rotational values are in degrees (yes) or radians (no).

endheader
time	pelvis_tilt	pelvis_list	pelvis_rotation	pelvis_tx	pelvis_ty	pelvis_tz	hip_flexion_r	hip_adduction_r	hip_rotation_r	knee_angle_r	knee_angle_r_beta	ankle_angle_r	subtalar_angle_r	mtp_angle_r	hip_flexion_l	hip_adduction_l	hip_rotation_l	knee_angle_l	knee_angle_l_beta	ankle_angle_l	subtalar_angle_l	mtp_angle_l	L5_S1_Flex_Ext	L5_S1_Lat_Bending	L5_S1_axial_rotation	L4_L5_Flex_Ext	L4_L5_Lat_Bending	L4_L5_axial_rotation	L3_L4_Flex_Ext	L3_L4_Lat_Bending	L3_L4_axial_rotation	L2_L3_Flex_Ext	L2_L3_Lat_Bending	L2_L3_axial_rotation	L1_L2_Flex_Ext	L1_L2_Lat_Bending	L1_L2_axial_rotation	L1_T12_Flex_Ext	L1_T12_Lat_Bending	L1_T12_axial_rotation	Abs_r3	Abs_r2	Abs_r1	Abs_t1	Abs_t2	neck_flexion	neck_bending	neck_rotation	arm_flex_r	arm_add_r	arm_rot_r	elbow_flex_r	pro_sup_r	wrist_flex_r	wrist_dev_r	arm_flex_l	arm_add_l	arm_rot_l	elbow_flex_l	pro_sup_l	wrist_flex_l	wrist_dev_l
      8.18300000	    -42.36252068	      2.03950918	     -3.57604745	     -0.24324534	      1.03913894	      0.26434026	     94.94433813	     -6.04376385	      3.39988033	    107.49562822	      1.87615264	     10.76668429	     -4.76668295	      0.00000000	     87.34420518	     -7.99333689	     -5.29881699	     54.01488765	      0.94273763	     10.74054651	      4.29228787	      0.00000000	     -0.04047025	      0.03715332	      0.16248538	     -0.07515730	      0.04941392	      0.17264072	     -0.06648857	      0.09033458	      0.17264072	     -0.04625345	      0.09033458	      0.14217471	     -0.03758067	      0.07576305	      0.13201937	     -0.02312470	      0.05755049	      0.12186404	     -0.28907495	      0.42028579	      0.90369495	      0.00000000	      0.00000000	     -0.00000000	      0.00000000	      0.00000000	     72.86486238	    -12.37744110	     32.07153475	     33.16974158	     45.79605994	      0.00000000	      5.00000014	     74.03749425	    -12.44845642	     28.04084677	     32.26817950	     56.17187385	      0.00000000	      5.00000014
      8.19200000	    -42.35469277	      2.06386833	     -3.87289864	     -0.24286324	      1.03920758	      0.26462774	     96.15931918	     -5.85287123	      3.67233852	    109.23902698	      1.90658069	     12.07776186	     -3.66314793	      0.00000000	     85.82604627	     -8.11225820	     -5.32507289	     52.04904354	      0.90842718	     10.54868836	      4.78992374	      0.00000000	     -0.03980568	      0.04222383	      0.22079836	     -0.07392313	      0.05615770	      0.23459826	     -0.06539675	      0.10266303	      0.23459826	     -0.04549391	      0.10266303	      0.19319857	     -0.03696356	      0.08610284	      0.17939867	     -0.02274497	      0.06540472	      0.16559877	     -0.28432800	      0.47764446	      1.22801425	      0.00000000	      0.00000000	     -0.00000000	      0.00000000	      0.00000000	     72.82429328	    -12.38038395	     32.04166266	     33.25147637	     45.77548096	      0.00000000	      5.00000014	     73.97648950	    -12.37751587	     27.97530632	     32.13459719	     56.10335161	      0.00000000	      5.00000014
      8.20000000	    -42.38167364	      1.80733147	     -4.32105105	     -0.24265196	      1.03930718	      0.26495583	     97.37150665	     -5.51178182	      3.51964310	    110.78936975	      1.93363928	     12.79678898	     -3.38430135	      0.00000000	     84.47736084	     -8.44500565	     -5.11403277	     50.26831872	      0.87734767	     10.12314899	      4.95159524	      0.00000000	     -0.03966233	      0.08509126	      0.30759914	     -0.07365691	      0.11317137	      0.32682409	     -0.06516124	      0.20689089	      0.32682409	     -0.04533008	      0.20689089	      0.26914925	     -0.03683044	      0.17351810	      0.24992430	     -0.02266306	      0.13180636	      0.23069936	     -0.28330406	      0.96256934	      1.71077414	      0.00000000	      0.00000000	     -0.00000000	      0.00000000	      0.00000000	     72.87561930	    -12.43865547	     32.05536936	     33.31089231	     45.77424513	      0.00000000	      5.00000014	     73.85606615	    -12.29929736	     27.93808288	     32.13799241	     56.07542617	      0.00000000	      5.00000014
      8.20800000	    -42.39204645	      1.68841644	     -4.65638896	     -0.24251216	      1.03934224	      0.26519849	     98.64152966	     -5.33202155	      3.47069648	    112.29097620	      1.95984725	     13.65722732	     -2.88670670	      0.00000000	     83.07104122	     -8.63845164	     -4.96974063	     48.44737716	      0.84556625	      9.82934326	      5.13732934	      0.00000000	     -0.04013042	      0.10812947	      0.37004865	     -0.07452621	      0.14381220	      0.39317669	     -0.06593027	      0.26290600	      0.39317669	     -0.04586506	      0.26290600	      0.32379257	     -0.03726511	      0.22049762	      0.30066453	     -0.02293052	      0.16749255	      0.27753649	     -0.28664760	      1.22318223	      2.05809958	      0.00000000	      0.00000000	     -0.00000000	      0.00000000	      0.00000000	     72.90072186	    -12.48398176	     32.13832278	     33.38854360	     45.78430472	      0.00000000	      5.00000014	     73.79492516	    -12.20415321	     27.80165090	     32.04779775	     56.03938301	      0.00000000	      5.00000014
      8.21700000	    -42.40271609	      1.58561498	     -4.91416697	     -0.24245684	      1.03931719	      0.26549870	     99.95656454	     -5.21652409	      3.45123487	    113.72156565	      1.98481575	     14.54569692	     -2.21677132	      0.00000000	     81.69728156	     -8.79614281	     -4.88250621	     46.73101739	      0.81561012	      9.46071137	      5.30606920	      0.00000000	     -0.03993558	      0.12300124	      0.41008429	     -0.07416437	      0.16359165	      0.43571456	     -0.06561017	      0.29906522	      0.43571456	     -0.04564238	      0.29906522	      0.35882376	     -0.03708418	      0.25082414	      0.33319349	     -0.02281919	      0.19052893	      0.30756322	     -0.28525589	      1.39141467	      2.28076581	      0.00000000	      0.00000000	     -0.00000000	      0.00000000	      0.00000000	     72.91818649	    -12.51624157	     32.26349964	     33.44485689	     45.80261459	      0.00000000	      5.00000014	     73.77853304	    -12.10625935	     27.59741885	     31.92144724	     56.01513919	      0.00000000	      5.00000014
      8.22500000	    -42.40922877	      1.48281876	     -5.13101547	     -0.24253866	      1.03920718	      0.26579449	    101.30082456	     -5.14589112	      3.42098014	    115.03566983	      2.00775120	     15.41820429	     -1.46308859	      0.00000000	     80.39183006	     -8.93750742	     -4.79710581	     45.14573405	      0.78794170	      8.91244800	      5.36050197	      0.00000000	     -0.03978241	      0.13710329	      0.43755327	     -0.07387992	      0.18234738	      0.46490035	     -0.06535853	      0.33335294	      0.46490035	     -0.04546732	      0.33335294	      0.38285911	     -0.03694195	      0.27958103	      0.35551203	     -0.02273167	      0.21237300	      0.32816495	     -0.28416181	      1.55093983	      2.43354002	      0.00000000	      0.00000000	     -0.00000000	      0.00000000	      0.00000000	     72.95517154	    -12.52001321	     32.41149944	     33.48153303	     45.82471171	      0.00000000	      5.00000014	     73.77164540	    -12.04255399	     27.34981079	     31.82203633	     55.98420283	      0.00000000	      5.00000014
      8.23300000	    -42.40478927	      1.62602463	     -5.05273557	     -0.24272029	      1.03892460	      0.26585533	    102.72371268	     -5.35144783	      3.90108656	    116.34062048	      2.03052688	     17.04389088	      0.89078931	      0.00000000	     79.14912247	     -8.67913762	     -4.83414997	     43.73150582	      0.76325876	      7.89148769	      4.74739382	      0.00000000	     -0.03708490	      0.11632341	      0.40180747	     -0.06887036	      0.15471014	      0.42692044	     -0.06092678	      0.28282875	      0.42692044	     -0.04238433	      0.28282875	      0.35158154	     -0.03443703	      0.23720670	      0.32646857	     -0.02119031	      0.18018497	      0.30135560	     -0.26489371	      1.31587371	      2.23473261	      0.00000000	      0.00000000	     -0.00000000	      0.00000000	      0.00000000	     73.01743215	    -12.47179731	     32.84765990	     33.46447618	     45.88658219	      0.00000000	      5.00000014	     73.72590377	    -11.97955808	     26.48878599	     31.79601598	     55.88452810	      0.00000000	      5.00000014
      8.24200000	    -42.41958258	      1.32074807	     -5.34980458	     -0.24302161	      1.03879372	      0.26635063	    104.02434767	     -5.14217260	      3.51515086	    117.26834235	      2.04671868	     17.49455279	      0.94329450	      0.00000000	     78.05150696	     -8.99256367	     -4.55211441	     42.54719567	      0.74258865	      7.04494887	      4.68581584	      0.00000000	     -0.03902268	      0.15634165	      0.44178625	     -0.07246903	      0.20793439	      0.46939789	     -0.06411037	      0.38012908	      0.46939789	     -0.04459903	      0.38012908	      0.38656297	     -0.03623646	      0.31881188	      0.35895133	     -0.02229756	      0.24217321	      0.33133969	     -0.27873513	      1.76856797	      2.45708261	      0.00000000	      0.00000000	     -0.00000000	      0.00000000	      0.00000000	     73.11959281	    -12.41130818	     32.89747932	     33.42741142	     45.89317881	      0.00000000	      5.00000014	     73.68611645	    -12.01180379	     26.38479464	     31.81553479	     55.87744674	      0.00000000	      5.00000014
      8.25000000	    -42.44658451	      1.11062927	     -5.51418262	     -0.24341194	      1.03866875	      0.26685184	    105.35028158	     -5.03741340	      3.21876408	    118.02719147	      2.05996310	     17.94371888	      0.87668612	      0.00000000	     77.02044153	     -9.14143220	     -4.23480818	     41.47764640	      0.72392150	      5.92119844	      4.41376455	      0.00000000	     -0.03899120	      0.18067949	      0.45694898	     -0.07241055	      0.24030372	      0.48550829	     -0.06405864	      0.43930411	      0.48550829	     -0.04456304	      0.43930411	      0.39983036	     -0.03620723	      0.36844162	      0.37127104	     -0.02227957	      0.27987253	      0.34271173	     -0.27851022	      2.04388253	      2.54141313	      0.00000000	      0.00000000	     -0.00000000	      0.00000000	      0.00000000	     73.20733971	    -12.30037173	     32.98609225	     33.36862831	     45.90555358	      0.00000000	      5.00000014	     73.65812354	    -12.07568444	     26.25956299	     31.89399680	     55.86785343	      0.00000000	      5.00000014
      8.25800000	    -42.46793159	      1.03602195	     -5.40362711	     -0.24391607	      1.03853145	      0.26708496	    106.70885128	     -5.13173455	      3.05750651	    118.63405099	      2.07055479	     18.21575741	      0.39503946	      0.00000000	     76.11834560	     -8.82050666	     -3.64232899	     40.61017391	      0.70878124	      3.92950003	      2.64969125	      0.00000000	     -0.03965188	      0.18855827	      0.42238411	     -0.07363750	      0.25078249	      0.44878312	     -0.06514407	      0.45846057	      0.44878312	     -0.04531813	      0.45846057	      0.36958609	     -0.03682073	      0.38450801	      0.34318709	     -0.02265708	      0.29207675	      0.31678808	     -0.28322940	      2.13300881	      2.34917369	      0.00000000	      0.00000000	     -0.00000000	      0.00000000	      0.00000000	     73.34092137	    -12.15974945	     33.17746461	     33.24620649	     45.93010608	      0.00000000	      5.00000014	     73.57979962	    -12.23286798	     25.93799790	     32.13753779	     55.85907470	      0.00000000	      5.00000014
